<?xml version="1.0" encoding="UTF-8"?>
<svg xmlns="http://www.w3.org/2000/svg" xmlns:xlink="http://www.w3.org/1999/xlink" width="35pt" height="35pt" viewBox="0 0 35 35" version="1.1">
<g id="surface1">
<path style=" stroke:none;fill-rule:nonzero;fill:rgb(0%,0%,0%);fill-opacity:1;" d="M 17.070312 0 C 10.011719 0 4.265625 5.742188 4.265625 12.800781 C 4.265625 22.25 16.078125 33.472656 16.582031 33.949219 C 16.722656 34.074219 16.898438 34.140625 17.070312 34.140625 C 17.242188 34.140625 17.421875 34.074219 17.558594 33.949219 C 18.0625 33.472656 29.875 22.25 29.875 12.800781 C 29.875 5.742188 24.128906 0 17.070312 0 Z M 17.070312 19.914062 C 13.148438 19.914062 9.957031 16.722656 9.957031 12.800781 C 9.957031 8.882812 13.148438 5.6875 17.070312 5.6875 C 20.992188 5.6875 24.183594 8.882812 24.183594 12.800781 C 24.183594 16.722656 20.992188 19.914062 17.070312 19.914062 Z M 17.070312 19.914062 "/>
</g>
</svg>
